<svg width="117" height="95" viewBox="0 0 117 95" fill="none" xmlns="http://www.w3.org/2000/svg">
<path d="M111.872 1.66992C114.075 1.62459 115.6 3.78444 114.907 5.83399L93.6484 68.7148C93.6326 68.7616 93.624 68.811 93.624 68.8604V72.1006C93.6242 72.2437 93.7183 72.5137 94.0752 72.918C94.7321 73.6623 95.3867 74.823 95.3867 76.3369C95.3866 77.985 94.6104 79.3061 93.9424 80.1064C93.6905 80.4082 93.6241 80.6318 93.624 80.7539V83.2197C93.6241 83.3832 93.722 83.6388 94.0684 84.1797C94.5112 84.8714 94.8701 85.8355 94.8701 87.0469C94.87 88.3229 94.482 89.8856 93.2227 91.127C91.9578 92.3737 90.0057 93.1083 87.2598 93.1084H18.4541C16.6938 93.1082 15.2891 91.6792 15.2891 89.9346V81.6748C15.2891 81.4245 15.0862 81.2208 14.8359 81.2207H10.4033C8.65091 81.2205 7.23058 79.8003 7.23047 78.0479V66.8789C7.23047 66.8411 7.22519 66.8033 7.21582 66.7666L2.09082 46.7285C1.68575 45.1449 2.54953 43.5123 4.08691 42.957L16.0059 38.6523C16.1076 38.6156 16.1927 38.5432 16.2461 38.4492L18.9268 33.7266C19.0817 33.4537 19.2761 33.2051 19.5039 32.9893L20.207 32.3232C20.2699 32.2637 20.3057 32.1804 20.3057 32.0938V31.749C19.8096 31.6738 19.3465 31.445 18.9873 31.0859L16.1045 28.2031C15.6302 27.7289 15.3185 27.1166 15.2139 26.4541L14.6943 23.166C14.684 23.1006 14.6591 23.0383 14.6221 22.9834L13.2529 20.9551C12.775 20.247 12.603 19.3758 12.7754 18.5391L14.5049 10.1504C14.6612 9.39197 15.0895 8.71657 15.709 8.25196L20.8496 4.39551L20.8613 4.3877L20.873 4.37891L23.4346 2.54004C23.8401 2.24891 24.3247 2.04352 24.8594 1.97949C26.4878 1.78459 28.8972 1.70246 31.2988 2.05664C33.6607 2.40498 36.2498 3.20919 37.9873 4.98145C41.2365 8.2957 42.5214 11.146 43.2705 13.1621C43.3427 13.3564 43.4971 13.4502 43.6367 13.457C46.6882 13.6074 51.6408 13.6208 56.8467 13.0684C62.0794 12.5131 67.434 11.3989 71.375 9.36914C74.4672 7.77659 80.1231 5.95124 87.1797 4.47852C94.2662 2.99958 102.861 1.85583 111.872 1.66992Z" fill="white" stroke="white" stroke-width="2.72008"/>
<path d="M29.0729 46.8092C29.199 46.8092 29.5018 47.0623 29.6027 47.1382C29.8802 47.2648 29.6784 47.3154 30.082 47.3154C30.3343 47.3154 30.4604 47.4673 30.7127 47.5179C30.8388 47.5179 31.3182 47.6697 31.4443 47.7203C31.6966 47.8469 31.7723 47.8722 32.075 47.9987C32.3777 48.1759 32.6805 48.3784 33.0084 48.4796L38.7603 51.3648C38.7603 51.3648 38.8865 51.137 38.9369 51.137C39.0378 51.137 38.9621 50.8586 38.9621 50.7827C38.9621 50.5802 38.9874 50.3018 38.9874 50.0993C38.9874 50.0234 39.0378 49.8715 39.0378 49.745C38.8612 49.745 38.508 49.4919 38.3062 49.416C38.1044 49.2895 37.8521 49.1882 37.6251 49.0364C37.2719 48.758 36.8178 48.5049 36.616 48.0493C36.5655 48.024 36.5151 47.9228 36.4898 47.8722C36.4394 47.8469 36.3637 47.7203 36.3385 47.6697C36.3132 47.6697 36.2628 47.5685 36.2375 47.5432C36.1871 47.5179 36.2375 47.0117 36.2375 46.9105C36.2375 46.8345 36.1871 46.5055 36.1619 46.4296C36.1366 46.2271 35.9096 46.1765 35.7835 46.05C35.6069 45.8728 35.3546 45.6197 35.1023 45.392C34.9005 45.1895 35.1023 44.9364 35.178 44.7339C35.3294 44.8858 35.7835 45.063 35.7835 45.2654C35.7835 45.5438 35.7078 45.5691 35.96 45.7463C36.0357 45.8222 36.2375 45.8475 36.3637 45.8981C36.4141 45.9487 36.4898 46.05 36.5655 46.1006C36.6916 46.2271 36.6664 46.0247 36.6664 45.9487C36.6916 45.8728 36.6916 45.7969 36.616 45.7716C36.5655 45.7463 36.4898 45.6197 36.4141 45.5691C36.3889 45.5691 36.3385 45.2401 36.3385 45.2401C36.3385 45.1389 36.3132 44.987 36.3132 44.8858C36.3132 44.3796 36.0357 43.7722 36.0357 43.3673C36.0357 42.9624 36.5655 42.6587 36.3132 42.3803C36.1619 42.279 35.6573 42.2537 35.4555 42.1525C35.0266 41.95 34.8753 41.4945 34.623 41.1401C34.4212 40.9124 34.3959 39.3939 34.9762 40.5581C35.178 40.9883 35.5312 41.9247 36.0105 41.9247C36.2123 41.9247 36.2628 42.3043 36.4141 42.3043C36.6412 42.3043 36.4898 41.95 36.4898 41.8488C36.4898 41.3932 36.7673 41.0895 36.7673 40.7352C36.7673 40.3809 36.1871 39.9253 36.3385 39.4951C36.3637 39.3179 36.7169 39.976 36.8178 40.0266C36.9944 40.1531 37.2467 40.4315 36.9944 40.634C36.9944 40.8364 37.398 41.1908 37.3223 41.4185C37.2467 41.5451 36.6664 41.621 37.0448 42.0006C37.398 42.355 37.4232 43.0383 37.0196 43.4432C36.7421 43.7469 36.5655 43.6457 36.5655 44.2025C36.5655 45.2907 36.8178 44.0759 36.9439 43.8481C37.1205 43.5698 37.3223 43.4938 37.5494 43.2914C37.726 43.0889 37.8017 42.6333 38.0287 42.6333C38.281 42.6333 38.5333 42.1272 38.5333 41.8741C38.5333 41.5957 38.836 41.2667 38.9874 41.0895C39.164 40.9124 38.9369 40.7352 38.9369 40.5074C38.9369 40.1784 38.8865 39.8241 38.7351 39.5963C38.6594 39.4698 38.508 39.2926 38.4576 39.1408C38.4576 38.4828 38.7351 37.9513 38.0792 37.5464C37.7008 37.3186 37.398 36.2809 36.9692 36.5846C36.6916 36.7618 36.9439 36.4075 36.9439 36.3569C36.9439 36.205 37.2971 35.0914 37.398 35.4205C37.398 35.4711 37.4989 35.7495 37.4232 35.9266C37.2467 36.5593 37.6755 36.205 37.726 36.0025C37.7512 35.876 37.8269 35.8001 37.8521 35.7495C37.953 35.6229 38.0035 35.6229 38.1296 35.4964C38.281 35.3698 38.4576 35.7748 38.4576 35.9519C38.4576 36.1291 38.0539 36.4075 38.0539 36.7365C38.0539 37.1161 38.6342 36.3062 38.7099 36.205C38.7603 36.1544 39.4162 35.3192 39.4162 35.2939C39.4162 35.1927 39.0378 34.9143 39.0378 34.7624C39.0378 34.4587 38.5333 34.7877 38.4324 34.8384C38.281 34.8384 37.9278 35.0155 37.6503 35.0155C37.2719 35.0155 37.0196 34.9902 36.6916 34.9902C36.4646 34.9902 34.5725 34.2563 34.5473 34.2563C34.1941 34.0791 34.2446 33.9526 34.4212 34.0032C34.5473 34.0538 34.9005 34.2563 34.9762 34.2563C35.2537 34.2563 35.8591 34.3828 36.1366 34.5093C36.616 34.6865 37.0448 34.5853 37.5746 34.5853C37.6755 34.5853 37.6755 34.4587 37.4485 34.4334L36.8178 34.3828C36.4898 34.3322 36.1114 34.3069 35.9348 34.1297C35.8339 34.0032 35.0014 33.826 34.9509 33.7754C34.6482 33.4717 34.9257 33.3958 35.2284 33.4717C35.7078 33.5476 36.7673 33.6489 37.1457 33.4717C37.4232 33.2945 37.7008 33.2945 37.9783 33.2692C37.9783 33.2692 38.1296 33.2692 38.2053 33.2439C38.1296 33.2186 38.0539 33.1427 38.0539 33.1174C38.0792 33.1174 38.1296 33.0668 38.1296 33.0415C38.1801 32.9908 38.281 32.9402 38.3062 32.9402C38.3567 32.9149 38.3567 33.1427 38.4324 33.1427C38.508 33.1174 38.836 33.1427 38.8108 32.8137C38.8108 32.7124 39.2396 32.6112 39.3405 32.6365C39.6181 32.6871 39.6937 32.6871 39.6937 33.0162C39.6937 33.7501 39.7442 33.3199 39.9965 33.3199C40.3244 33.3199 40.2487 32.4847 40.2487 32.3581C40.501 31.6495 41.0813 32.2063 41.0813 32.7884C41.0813 32.8896 41.3588 33.7754 41.3588 33.2945C41.3588 33.0161 41.2326 32.6365 41.2326 32.3075C41.2326 32.2316 40.7785 31.6242 40.7028 31.4723C40.7028 31.2952 40.6524 31.1939 40.5262 31.118C40.501 31.0927 40.2487 30.6625 40.1731 30.8143C40.1478 30.8396 39.9712 31.0927 39.946 31.0674C39.946 31.0674 39.8451 30.8649 39.8199 30.8143C39.7946 30.6625 39.7442 30.4094 39.6685 30.3588C39.5171 30.1816 39.1135 30.0551 38.9117 29.8526C38.7351 29.6754 38.9369 29.7514 39.1135 29.7514C39.4162 29.7514 39.0883 29.7007 39.0378 29.6501C38.9621 29.5742 38.7099 29.4477 38.5837 29.5236C38.5585 29.5236 38.4828 29.5489 38.4324 29.5489C38.3819 29.5489 38.281 29.5489 38.2558 29.5742C38.1801 29.5995 38.0539 29.7514 37.953 29.7514C37.9026 29.7514 37.8521 29.8273 37.8017 29.8273L37.7512 29.8779L37.7008 29.9791C37.6503 30.0804 37.5746 30.2069 37.4232 30.2069C37.3728 30.2069 37.0701 29.5742 36.7673 29.7008C36.5655 29.7514 36.0357 30.0045 35.8591 30.0045C35.405 30.0045 35.0518 30.4347 34.5977 30.3335C34.4968 30.2828 34.4212 30.2575 34.4212 30.0804C34.4968 29.7514 34.4968 29.8273 34.7239 29.5236C34.8248 29.473 35.0014 29.3211 35.0771 29.3211C35.2032 29.2958 35.178 29.1946 35.5312 29.1946C36.0357 29.1946 36.1871 29.3464 36.7673 29.2958C36.8935 29.2958 37.0196 29.2705 37.1457 29.2705C37.2971 29.2705 37.4737 29.1187 37.5998 29.1187C37.8269 29.1187 38.1296 28.7137 38.3062 28.739C38.5837 28.6125 39.164 28.6884 39.4162 28.7896C39.4667 28.8403 39.6937 28.7137 39.7442 28.6884C39.8956 28.6125 39.8703 28.41 39.9965 28.3088C40.1226 28.1822 39.6937 27.9798 39.5676 27.9798C39.5676 27.9798 39.391 28.1569 39.3658 28.1822C39.2901 28.2582 39.1387 28.2582 39.0378 28.3341C38.8612 28.3341 38.6342 28.3341 38.5333 28.2582C38.4828 28.2076 38.3314 28.0051 38.3062 27.9292C38.2305 27.8026 38.1801 27.6761 38.1296 27.4989C38.1296 27.4989 37.9278 27.4736 37.7764 27.5495C37.5242 27.8026 37.2971 27.752 36.9944 27.9039C36.7421 28.0304 36.5655 28.081 36.2375 28.0051C35.5312 27.8026 35.9348 26.8409 36.1619 26.6384C36.616 26.1829 36.7673 26.3347 37.3476 26.3347C37.5242 26.2082 37.5494 25.8033 37.5242 25.5502L36.5655 23.0953C36.5403 23.0193 36.2375 22.1335 36.2375 22.0576C36.2375 21.9058 36.3637 21.4249 36.4394 21.3743C36.4898 21.3743 36.5403 21.1718 36.5907 21.1212C36.4898 20.7416 36.1114 20.5138 35.8591 20.1342C35.6321 19.7799 35.405 19.2231 35.0771 18.9953C34.8753 18.8688 34.3455 18.5904 34.1689 18.4385C33.8409 18.2867 32.9832 18.1095 32.3777 18.0589C31.7723 18.0842 31.2172 18.1348 30.5866 17.8564C30.3343 17.7299 30.3595 17.1984 30.2334 16.9453C29.7036 15.7052 30.1829 14.4145 29.2243 13.1997C28.644 12.5163 28.7449 12.1873 27.9124 11.7824C27.7358 11.6812 26.3988 11.3775 26.2474 11.3015C25.7428 11.0231 25.3392 10.6182 24.8851 10.4917C24.2796 8.99847 25.541 8.99847 26.2474 8.4923C26.6006 8.26453 27.0799 8.54292 27.2565 8.4923C27.2817 8.4923 27.4836 8.46699 27.4079 8.39107C27.2817 8.31514 26.8276 8.1886 26.9033 8.1886C27.7358 8.26453 26.8276 7.96083 26.979 7.93552C27.0799 7.8849 27.7106 8.03675 27.8115 8.01144C27.8872 7.96082 28.1395 7.85959 28.4422 7.70774C28.3665 7.68243 28.2152 7.63182 28.1395 7.60651C27.7611 7.45466 27.3574 7.40404 26.979 7.40404C26.979 7.40404 27.3322 7.37873 27.4331 7.37873C27.6349 7.37873 27.9124 7.35342 28.089 7.40404C28.2656 7.47997 28.5179 7.50528 28.7449 7.55589C28.9468 7.42935 29.0981 7.37873 29.1234 7.37873C29.3504 7.50527 29.5522 7.70774 29.754 7.70774C29.8802 7.70774 30.1829 7.96082 30.41 7.8849C30.637 7.8849 29.9811 7.5812 30.082 7.50527C30.1325 7.40404 30.7884 7.75836 30.2838 7.35342C30.082 7.17627 29.7793 7.04972 29.8802 6.92318C29.9306 6.84726 30.0063 6.79664 30.082 6.79664C30.2081 6.84726 30.3343 6.89787 30.41 6.94849C30.5109 7.07503 31.0407 7.22688 31.2172 7.2775C31.3182 7.30281 31.3686 7.37873 31.4443 7.42935C31.4443 7.45466 31.4191 7.35342 31.4191 7.32811C31.3182 7.15096 31.1668 7.10034 31.0659 6.9738C30.9902 6.92318 30.8136 6.84725 30.7127 6.82195C30.6622 6.79664 30.5613 6.77133 30.4604 6.72071C30.5361 6.72071 30.5866 6.74602 30.637 6.77133C30.8136 6.84726 31.1163 6.82195 31.2929 6.89787C31.4191 6.9738 31.9488 7.50527 32.075 7.50527C32.1759 7.50527 32.3273 7.78367 32.2264 7.42935C32.075 6.84726 32.7814 7.53058 33.0589 7.60651C33.1345 7.63182 33.5886 7.65712 33.5886 7.5812C33.5886 7.37873 33.1598 7.02442 33.2607 6.84726C33.2607 6.84726 33.6896 7.12565 33.8914 7.60651C33.9923 7.68243 34.1437 7.75836 34.2193 7.80898C34.295 7.85959 33.9671 7.12565 34.0932 7.17627C34.1941 7.25219 34.295 7.30281 34.3707 7.37873C34.4464 7.42935 34.5221 7.75836 34.623 7.8849C34.7491 8.06206 34.9509 8.08737 34.9509 8.13798C35.0014 8.03675 34.7996 7.5812 34.8753 7.5812C35.0014 7.53058 35.2032 7.73305 35.2789 7.91021C35.3546 8.06206 35.3798 8.21391 35.6069 8.34045C36.1114 8.66946 36.3637 8.796 36.8935 9.22625C36.9439 9.27686 37.4737 9.58056 37.6755 9.78303C37.8017 9.83365 37.8521 9.78303 37.7764 9.58057C37.4232 8.54292 35.7078 7.45466 35.0266 6.79664C34.5725 6.34109 32.8823 6.01208 32.0245 5.65776C31.192 5.35406 29.3504 5.12628 28.4422 5.12628C27.1556 5.12628 25.9699 5.55653 24.9103 5.88554C24.759 5.93615 24.3049 6.23985 24.1283 6.34109C24.0526 6.3917 23.8508 6.59417 23.7751 6.61948C23.6237 6.6954 23.4471 7.04972 23.2453 7.12565C22.2614 7.45466 21.9839 7.83428 21.6307 8.03675C21.328 8.23922 20.8235 8.7707 20.4955 8.94785C20.1675 9.09971 19.5116 9.65649 19.3098 9.85896C17.6195 11.4787 16.787 14.0348 16.6104 16.0848C16.5852 16.5657 15.9293 17.7805 16.1311 19.4255C16.3077 20.7922 17.1907 21.8804 17.6952 22.8928C17.5439 23.6267 17.7961 24.8922 17.7961 25.1959C17.8718 26.5878 20.5207 30.4853 22.2614 29.5995L22.5389 30.6119L22.7408 32.5353L22.6903 33.6742L21.8326 34.3828L21.3532 35.0408L20.8739 35.8254L20.5964 36.7871L21.0505 36.0532L21.6055 35.0661H21.9082C21.9587 35.218 22.1353 35.5217 22.1353 35.6735C22.1353 35.7748 22.2614 36.0532 22.3119 36.1291C22.3623 36.2303 22.3371 36.3316 22.4128 36.4075C22.4885 36.5087 22.7155 37.2933 22.8669 37.2933L24.1787 38.913L26.7015 41.1401L28.1395 42.3803L30.1072 43.4685L30.4604 44.2531L29.8802 44.658L28.8458 46.2018L28.0133 47.0623L27.2313 47.5938L25.3392 49.0364L23.9012 50.074L23.5733 50.2512L23.0687 50.1246L21.8578 47.3407L20.5712 44.8858L18.5025 41.0136L17.998 42.2537L19.3602 45.063L20.6973 47.037L21.1262 48.7327L21.7316 50.732L23.2705 50.8586L24.2544 50.7067L26.6763 48.9098L27.1556 48.1759L27.9377 47.7203L29.0729 46.8092Z" fill="#EC1C24"/>
<path d="M34.9005 43.4685C34.8248 43.4685 34.6734 43.5444 34.6482 43.5698C34.5725 43.6204 34.4968 43.5698 34.4968 43.6963C34.4968 43.8735 34.4464 44 34.2193 44C33.9418 44 34.068 44.1518 33.9671 44.3037C33.9418 44.3796 34.3707 44.8605 34.4212 44.9364C34.4716 45.0629 34.5473 45.063 34.6482 45.0123C34.6734 45.0123 34.7996 44.9617 34.8248 44.9364C34.8248 44.9364 34.7491 44.6074 34.7491 44.5315C34.7491 44.2784 34.9509 44.1518 34.9509 44C34.9509 43.8988 34.8753 43.8228 34.8753 43.7216C34.8753 43.6457 34.9005 43.5698 34.9005 43.4685Z" stroke="#EC1C24" stroke-width="0.362677" stroke-miterlimit="10"/>
<path d="M35.4555 42.6334C35.4555 42.7599 35.3294 42.8105 35.3294 42.9117C35.3294 43.0383 35.3798 43.1395 35.2789 43.1648C34.8753 43.3167 35.2032 43.8482 35.1023 44.1519C35.1023 44.2025 35.0518 44.3037 35.0518 44.3543C35.0518 44.4049 35.4555 44.5568 35.5059 44.658C35.5816 44.8605 35.5816 44.4303 35.5816 44.3796C35.5816 44.2784 35.4807 44.1519 35.4807 44.0759C35.4807 43.8735 35.6825 43.7975 35.5059 43.6204C35.405 43.4938 35.2537 43.4938 35.3546 43.2914C35.4555 43.1142 35.7078 43.0636 35.7078 42.8611C35.7078 42.6334 35.7078 42.608 35.4555 42.6334Z" stroke="#EC1C24" stroke-width="0.362677" stroke-miterlimit="10"/>
<path d="M30.2586 20.5897L31.1163 20.0076C31.4695 19.9064 31.9993 19.8052 32.4029 19.8052C32.6804 19.8052 33.2607 20.0076 33.4373 20.1848C33.4625 20.1848 33.8409 20.4632 34.0427 20.6403C34.0932 20.691 34.3202 20.8175 34.3455 20.8681C34.4464 21.0453 34.3959 21.1718 34.3959 21.1971C34.3959 21.3237 34.1184 21.2224 33.9166 21.1212C33.8157 21.0706 33.7652 21.02 33.5886 20.9694C33.3111 20.8934 33.2607 20.8934 33.0841 20.8428C32.9327 20.7922 32.7309 20.9187 32.6552 20.944C32.4029 20.9694 32.3525 20.944 32.075 21.02C31.8732 21.0706 31.3181 21.2477 31.4443 21.1971V21.1718C30.8641 21.3743 30.8388 21.0453 30.7127 20.9187C30.6622 20.8681 30.4352 20.8934 30.2081 20.8681C30.0063 20.8428 29.8045 20.7669 29.754 20.7669C29.6784 20.7669 29.754 20.6657 29.8297 20.5897C29.8549 20.5897 30.2586 20.5897 30.2586 20.5897Z" fill="#FEFEFE" stroke="#EC1C24" stroke-width="0.362677" stroke-miterlimit="10"/>
<path d="M34.5473 24.5631C34.3959 24.8415 34.3202 25.2718 34.4464 25.5502C34.5473 25.778 34.7491 26.1323 34.623 26.5372C34.3202 26.8578 34.0175 27.1868 33.7148 27.5242C33.3616 27.8532 32.9327 28.3341 32.5291 28.5366C32.2011 28.7137 31.7218 28.6884 31.5704 28.1823C31.4947 27.9798 31.4443 27.8026 31.3686 27.6255C31.2425 27.3977 31.192 26.9928 31.0659 26.8156C30.8388 26.5625 30.7379 26.36 30.3343 25.9804C30.2081 25.9045 29.7036 25.4996 29.5018 25.4236C28.6692 25.1199 28.6188 24.3607 28.8458 24.1582C28.8963 24.1076 29.199 23.8292 29.5018 23.6774C29.3504 23.6774 29.0224 23.6774 28.9215 23.652C28.7954 23.652 28.5179 23.9557 28.4422 23.9051C28.417 23.8545 27.4583 23.5761 27.862 23.5255C28.0386 23.5002 27.6097 23.6014 27.6854 23.5761C27.862 23.4749 28.5431 23.399 28.644 23.399C28.8206 23.399 28.8963 23.323 29.0477 23.2977C29.0477 23.2977 28.9215 23.0699 28.5683 23.0699C28.5431 23.0193 28.3161 22.8928 28.1647 22.7156C28.0133 22.5385 27.7863 22.4372 27.8115 22.4119C26.9285 22.4625 27.6854 22.2095 27.862 22.2095C28.1142 22.2854 28.8458 22.6397 28.8963 22.665C29.0981 22.7409 29.9054 23.399 29.9054 23.4243C30.1325 23.6014 30.3595 23.7533 30.5866 23.7786C31.1163 23.8545 31.2425 23.8292 31.6209 23.7786C31.8984 23.728 32.2011 23.7027 32.63 23.5255C32.7561 23.4496 32.2516 23.4749 32.1759 23.5002C31.9488 23.5255 31.9993 23.3737 31.6461 23.3483C31.4947 23.3483 31.4947 23.323 31.3686 23.323C30.9145 23.323 30.2586 22.994 29.8802 22.7156C29.8045 22.6397 29.6784 22.5638 29.6279 22.4879C29.6784 22.4372 29.527 22.2095 29.6279 22.2095C29.8297 22.2348 30.082 22.2095 30.1577 22.2095C30.3847 22.2095 30.5866 22.3107 30.6875 22.3613C30.7127 22.3866 30.5109 22.007 30.5361 21.9817C30.6118 21.8805 30.9902 21.8298 31.1163 21.8298C31.5704 22.2095 31.8227 22.4625 32.3273 22.4119C32.4786 22.4119 32.6048 22.336 32.7814 22.1082C32.8823 21.9564 32.857 21.7539 32.9327 21.8045C33.0841 21.8551 33.3364 22.336 33.513 22.336C33.8409 22.336 34.1689 22.4119 34.068 22.2601C33.9923 22.1588 33.5886 21.7539 33.6391 21.6274C33.7148 21.4249 33.8409 21.4755 34.0427 21.6021C34.2193 21.8805 34.4716 22.0829 34.623 22.2854C34.7491 22.4879 34.3707 23.07 34.3455 23.1206C34.1941 23.2218 34.1941 23.3737 34.0932 23.399L34.1437 23.728C34.4212 23.6774 34.5473 23.6267 34.5473 23.7786C34.5977 23.9051 34.5221 23.9811 34.4968 24.1582C34.4968 24.2341 34.5221 24.5125 34.5473 24.5631Z" fill="#FEFEFE" stroke="#EC1C24" stroke-width="0.362677" stroke-miterlimit="10"/>
<path d="M24.8346 9.4034C24.431 9.78303 24.0021 10.1373 23.5985 10.517C23.3967 10.6182 23.1949 10.8713 23.1444 11.6052L22.7155 12.0608C22.211 12.7188 22.2362 13.554 22.2362 14.9966L22.3876 15.604C22.0596 12.5923 22.8164 12.3898 23.4471 11.6052C23.4724 11.3268 23.649 10.6941 24.1787 10.5423H24.5571C24.8851 10.441 25.1878 10.5929 25.4401 10.7701L25.7428 9.04909L25.1374 9.30217L24.8346 9.4034Z" fill="#FEFEFE"/>
<path d="M21 15.1737C21 14.7688 21.1514 13.7565 21.3785 13.5287C21.5551 13.3515 21.7064 12.3392 21.8578 12.0608C21.9839 11.7824 22.438 11.4028 22.6651 11.2003C22.8164 11.4787 22.1857 11.9849 22.1353 12.2126C22.0596 12.4151 22.0344 12.7188 22.0344 12.9466C22.0344 13.3515 21.6307 13.8071 21.5046 14.1108C21.4037 14.2879 20.9748 15.0219 21 15.1737Z" fill="#FEFEFE"/>
<path d="M21.0505 11.0991L20.0918 12.2126L19.6378 13.0225L19.2341 14.0348C18.9314 14.2879 18.8557 15.5027 18.8557 15.9583C18.8557 16.2873 18.7043 17.0972 18.78 16.8188L19.108 15.7558C19.3855 14.7688 19.9909 13.6299 20.2937 12.7188C20.3441 12.5417 20.8739 11.833 20.8235 12.0355C20.7225 12.7188 20.1928 13.4274 20.1928 14.1361C20.1928 14.6169 20.1675 14.9459 20.3189 14.212C20.3946 13.7818 21 13.1744 21 12.7441C21 12.5923 21.2523 11.9849 21.328 11.8836C21.4289 11.8077 21.1766 12.7694 21.4541 12.1873C21.6307 11.8583 22.0092 11.4534 21.3028 11.6812C20.773 11.8583 20.8739 11.504 21.0505 11.0991Z" fill="#FEFEFE"/>
<path d="M18.6034 14.2373C18.2502 14.9206 18.0736 15.0725 18.0736 15.9583C18.0736 16.4898 17.9475 16.8947 18.0989 17.4262C18.1241 17.5274 18.1493 17.6793 18.1746 17.7805C18.225 17.907 18.1746 17.4515 18.225 17.2996C18.4016 16.8441 18.5025 15.8064 18.5025 15.3256C18.5025 15.0978 18.6539 14.7182 18.7548 14.541C18.78 14.4904 18.8557 14.2373 18.8557 14.1867C18.8557 14.0855 18.6034 14.1614 18.6034 14.2373Z" fill="#FEFEFE"/>
<path d="M20.218 26.7144C20.3441 26.7144 20.6721 26.8662 20.7478 26.9168C20.8739 26.9674 20.9244 26.9928 21 27.094C21.2523 27.3218 21.6307 27.3218 21.9587 27.3218C22.1857 27.423 22.1857 27.423 22.0344 27.5495C21.9335 27.6761 21.5551 27.8785 21.3785 27.8279C21.2019 27.7773 20.8991 27.6002 20.7982 27.4736L20.218 26.8915C20.1423 26.8156 20.0162 26.8409 19.9657 26.7144C19.9405 26.6384 20.1423 26.765 20.218 26.7144Z" fill="#FEFEFE"/>
<path d="M18.9061 26.5625C19.3098 27.2458 20.2684 27.2965 20.6973 27.9292C20.8739 28.2076 21.3532 28.41 21.656 28.2582C21.883 28.1569 22.3876 27.8026 22.3876 27.4989C23.5228 27.4989 22.1353 28.815 22.0848 28.9162C21.3785 30.2828 19.6882 28.0304 19.2089 27.5495C18.8809 27.1952 18.7296 26.7144 18.4773 26.2588C18.4016 26.0563 18.225 25.6008 18.4773 26.0057C18.5277 26.0817 18.8305 26.5372 18.9061 26.5625Z" fill="#FEFEFE"/>
<path d="M20.0666 23.6267C20.3441 23.5255 20.5964 23.0193 20.1171 23.0193C19.5873 23.0193 18.8809 23.5508 18.8809 24.1329C18.8809 24.2848 18.7296 24.5378 18.7296 24.715C18.7296 25.1452 18.78 25.4743 18.8557 25.778C18.9062 25.9298 19.3098 26.3854 19.4359 26.4613C19.9657 26.8409 19.5621 25.8792 19.2341 25.8792C18.8557 25.8792 18.9314 25.0693 18.9314 24.7909C19.108 24.715 19.4359 24.2848 19.5116 24.1329C19.5621 24.0317 19.663 23.9051 19.6882 23.8292C19.6882 23.8039 20.0162 23.652 20.0666 23.6267Z" fill="#FEFEFE"/>
<path d="M20.3441 25.1959C20.2684 25.1705 20.2684 25.1959 20.218 25.2465L20.1171 25.3224C20.1171 25.3224 20.0919 25.4489 20.0919 25.4996C20.0919 25.5502 20.0666 25.5755 20.0666 25.6261C20.0666 25.7273 20.0162 25.8033 20.0162 25.9045C20.0162 25.9804 20.0162 26.107 20.0162 26.1829C20.0162 26.2335 20.0666 26.3347 20.1171 26.3347C20.1171 26.3347 20.2432 26.3854 20.2432 26.36C20.2432 26.3094 20.2432 26.2588 20.2432 26.2082C20.2432 26.107 20.3441 26.0057 20.3694 25.9045C20.3694 25.9045 20.445 25.8033 20.445 25.778C20.4703 25.7526 20.4703 25.7273 20.4955 25.702C20.5459 25.6514 20.5459 25.6008 20.5964 25.5755C20.5964 25.5502 20.5712 25.5502 20.5964 25.5249C20.5964 25.4996 20.6721 25.4489 20.6216 25.3983C20.5964 25.3983 20.3441 25.1705 20.3441 25.1959Z" fill="#FEFEFE"/>
<path d="M21.5298 24.5885C21.5298 24.9681 21.7821 25.2465 21.5046 25.4996C21.5046 25.5249 21.5046 25.7526 21.5046 25.8033C21.5046 25.8286 21.656 26.0057 21.656 26.031C21.6812 26.031 21.883 26.2588 21.883 26.107C21.883 26.031 21.9082 25.8286 21.9082 25.7273C21.9082 25.4996 21.8073 25.2465 21.9082 25.044C21.9335 24.9681 21.9082 24.7403 21.883 24.715C21.8326 24.6897 21.656 24.5631 21.5298 24.5885Z" fill="#FEFEFE"/>
<path d="M30.4604 59.8937C30.2081 59.3622 29.5775 58.5523 29.3504 58.1221C24.9103 48.758 30.6875 60.9819 30.7884 58.527C30.8136 58.198 30.9145 56.8314 30.8641 56.6795L30.3343 54.8826C30.3343 54.3005 30.1577 53.516 30.1577 52.858C30.1577 51.7444 29.0981 50.2006 29.0981 49.087C29.1486 49.0364 29.2243 48.8845 29.2495 48.8339C29.2999 48.8086 29.4261 48.6821 29.5018 48.6314C29.6027 48.6061 29.7288 48.5049 29.8045 48.429C29.8802 48.3531 29.9559 48.2012 30.0568 48.1759C30.1072 48.1506 30.1577 48.1253 30.2081 48.1253C30.3343 48.429 30.41 49.5425 30.41 49.8716C30.41 50.9851 30.9145 51.6685 30.9145 52.7314C30.9145 53.9715 31.3938 55.1357 31.3938 56.5277C31.2172 56.8061 31.4443 59.5141 31.4443 60.0962C31.4443 60.7036 31.5704 61.0832 31.52 62.0449C31.52 62.2221 31.52 62.3486 31.4948 62.4245L31.7723 67.8405L31.2425 65.3097L30.8641 62.6523L30.9145 61.9437V60.8048C30.7884 60.4252 30.6622 60.0962 30.4604 59.8937Z" fill="#EC1C24"/>
<path d="M31.7218 48.8086C31.4191 48.9858 30.9902 48.9351 30.8893 49.3148C30.7379 49.745 30.6875 50.5802 31.0407 50.9851C31.1163 51.0864 31.4191 51.5419 31.5704 51.5672C31.6966 51.6178 31.8227 51.7444 31.9489 51.7444C32.075 51.7444 32.2264 51.5925 32.302 51.5925C32.3525 51.5419 32.5291 51.4154 32.6048 51.4154C33.0841 51.4154 32.7057 50.1752 33.4121 50.1752C33.4625 50.1752 33.9923 49.9981 33.9923 49.9475C33.9923 49.6691 33.5886 49.7197 33.3364 49.7197C33.1093 49.7197 32.9327 49.745 32.9327 50.0487C32.9327 50.2512 32.6552 51.061 32.3273 50.7573C32.2264 50.6561 31.9489 50.5043 31.9489 50.3777C31.9489 49.9728 31.4695 50.2259 31.7723 50.6814C31.9236 50.9092 32.3777 50.9092 32.4534 51.0357C32.6048 51.3647 32.2768 51.3647 32.1002 51.4407C31.7723 51.6178 31.2929 50.7826 31.2929 50.5296C31.2929 49.7956 31.3182 49.0617 31.9993 48.8339C32.3525 48.7327 32.6805 49.3401 32.6805 48.7833C32.6805 48.758 31.9489 48.5808 31.7218 48.8086Z" fill="#EC1C24"/>
<path d="M32.0498 49.6185C31.8732 49.6185 31.7723 49.8716 31.8732 49.8716C31.9489 49.8716 32.075 49.9222 32.2264 49.9222C32.3273 49.9222 32.3777 49.9475 32.4786 49.9728C32.5291 49.9728 32.5543 50.1246 32.4786 50.1246C32.403 50.1246 32.2264 50.074 32.2264 50.2006C32.2264 50.2765 32.2768 50.3271 32.3525 50.403C32.4282 50.4536 32.6552 50.5296 32.6552 50.3271C32.6552 50.2259 32.63 50.1499 32.6805 50.074C32.7309 50.0234 32.7561 50.0487 32.7561 49.9475C32.7561 49.7956 32.5543 49.6185 32.403 49.6185C32.3525 49.6185 32.2264 49.5932 32.1759 49.5679C32.1254 49.5425 32.075 49.6185 32.0498 49.6185Z" fill="#EC1C24"/>
<path d="M41.4344 32.4594C41.4597 33.0162 41.7119 33.497 41.5606 34.155C41.5606 34.3069 41.611 34.6612 41.4849 34.7877C41.4344 34.8637 41.0056 34.9649 40.9803 35.0408C40.829 35.547 40.7785 35.4711 40.4001 35.8001C40.274 35.876 40.2235 36.2303 40.1731 36.3063C40.1478 36.3316 39.7442 36.4581 39.7694 36.4581L39.946 35.876C40.1983 35.5976 40.6524 35.0408 40.8542 34.7118C40.8794 34.6612 41.0813 34.56 41.1065 34.5347C41.1822 34.2563 41.5101 33.7248 41.5101 33.4211C41.5101 33.0668 41.4092 32.8137 41.4344 32.4594Z" fill="#EC1C24" stroke="#EC1C24" stroke-width="0.362677" stroke-miterlimit="10"/>
<path d="M41.1822 35.218C41.1822 35.4964 41.2326 35.876 41.1822 36.205L40.8542 36.8124L40.2487 37.0149L39.7442 37.5717L39.5171 38.0778L38.9117 38.5587C39.063 38.2297 39.2144 37.9007 39.3406 37.5717C39.6937 36.9896 40.4001 36.9643 40.7281 36.3569L41.1822 35.218Z" fill="#EC1C24" stroke="#EC1C24" stroke-width="0.362677" stroke-miterlimit="10"/>
<path d="M40.7785 33.0162L40.5767 33.9526L40.2992 34.5094L40.1226 34.9902C40.1226 35.0661 40.1226 35.1168 40.1226 35.1674C40.4506 34.6865 40.7281 34.6359 41.0308 34.3575L41.2579 33.9273L41.0813 33.5476L40.9047 32.6871L40.7785 33.0162Z" fill="#EC1C24" stroke="#EC1C24" stroke-width="0.362677" stroke-miterlimit="10"/>
<path d="M40.2992 28.2329L40.7029 28.7137L41.2326 29.1946L41.1569 28.6631L41.0308 28.41L41.056 27.6761L40.6524 26.9674V27.4736L40.4758 27.9798L40.2992 28.2329Z" fill="#EC1C24" stroke="#EC1C24" stroke-width="0.362677" stroke-miterlimit="10"/>
<path d="M41.8633 52.2759C41.6867 52.0987 42.1408 50.8333 42.1408 50.5802C42.1408 49.745 41.9642 48.8339 41.9642 47.9481C41.9642 47.1383 41.8129 47.0117 41.3335 46.3537C41.1317 46.0753 40.6019 45.3667 40.6272 45.4173C40.7785 46.1512 41.056 46.6827 41.2326 47.4673C41.384 48.3277 41.2831 48.1506 41.1569 48.9351C41.0308 49.745 40.9803 48.3277 40.9047 48.0494C40.829 47.5938 40.3497 47.0623 40.4001 47.1382C40.6524 47.6697 40.7028 48.3277 40.7028 49.0364C40.7028 48.9605 39.4415 47.771 39.2901 47.6191C39.2144 47.5432 38.836 46.8599 38.9874 47.1129C39.0378 47.1889 39.1387 47.3407 39.2144 47.3407C39.2144 47.3407 39.8199 47.6444 39.8199 47.442C39.8199 47.366 39.5424 46.9358 39.4919 46.8599C39.2901 46.5815 38.5837 45.7716 38.6089 45.4426L38.4071 44.7593L38.0035 44.0759L37.9783 44.4049L38.1296 45.9741L39.063 48.1253L39.2396 49.1123C39.2396 49.416 39.3405 49.1882 39.4162 49.1123C39.946 48.5808 40.3244 49.0111 40.5767 49.5425C40.8794 50.2006 40.9551 51.0357 40.9551 51.7697C41.2579 52.5289 41.2831 53.6425 41.2831 54.4777C41.2831 54.7308 41.3335 55.0092 41.3335 55.2369C41.3335 55.8696 42.0904 56.4517 42.2165 57.1351C42.494 58.527 42.3426 56.3505 42.3426 55.9456C42.3426 55.0851 42.1408 54.174 42.1408 53.3641C42.1408 52.8579 41.8633 52.5542 41.8633 52.2759Z" fill="#EC1C24" stroke="#EC1C24" stroke-width="0.362677" stroke-miterlimit="10"/>
<path d="M38.0035 31.6242L38.4324 31.2446L38.9874 31.2193L39.3153 31.0168L39.3405 30.7384L39.5171 30.6878L39.5424 31.0168L39.8703 31.1939L39.2144 31.3711L38.6089 31.7254L38.0035 31.6242Z" fill="#FEFEFE"/>
<path d="M38.0035 32.0038L38.7603 31.852L39.0883 31.8773L39.391 31.7254L39.7442 31.7507L39.2901 32.0544L38.4324 32.1051H37.3728L38.0035 32.0038Z" fill="#FEFEFE"/>
<path d="M49.3055 35.5976C49.7343 35.3951 50.2894 35.4711 50.5669 36.0532C50.693 36.3569 50.693 36.863 50.3903 37.1161C52.0805 37.2173 53.9221 38.4575 54.2501 41.5198C54.5024 44.1012 53.2914 45.316 52.3328 46.1765C50.4659 46.4802 47.4639 41.8235 46.5557 41.9753C46.152 42.0513 45.7231 42.1272 45.5466 42.1525C45.597 39.976 46.6818 38.2803 48.8514 37.1414C48.6243 36.534 48.7 35.8507 49.3055 35.5976Z" fill="#FEFEFE"/>
<path d="M92.2316 62.8877C92.6194 61.671 92.923 60.077 93.0753 59.1602C93.3528 57.5404 93.2264 56.4518 93.0246 54.832C92.5452 51.9975 91.1832 49.3396 87.4747 48.0742C86.3901 47.72 85.2046 47.2648 83.7921 47.0117C82.4298 47.442 79.3007 50.3782 77.4591 53.7695C75.3907 57.6161 74.4064 60.1719 72.9181 63.4365C73.9776 60.6527 73.0699 57.8184 70.421 56.3252C69.6894 55.8696 72.1621 51.8201 72.4396 51.1621C71.6575 48.0492 69.008 45.5943 62.0704 47.2646C60.91 48.4541 60.1284 48.9356 58.9679 50.1504C57.8833 52.4028 58.2366 55.237 60.507 56.3252L58.0343 63.8164L57.4855 62.7021L56.2179 58.6025L54.3761 53.9463L53.922 52.9336L52.5089 48.5049L51.0333 46.8633C53.7789 45.7966 54.5207 43.5948 54.2247 41.3428C53.7455 39.0399 52.2069 37.6982 50.5167 37.6475C48.2967 37.6981 46.858 39.3437 46.4796 41.7227C46.2276 41.7228 45.9253 41.8487 45.6984 41.7227C45.875 39.7739 47.2369 37.7746 49.1037 37.2178C49.1037 37.1925 49.0781 37.1924 49.0529 37.1924H49.0275L49.0031 37.167H48.9015C48.8764 37.1668 48.8514 37.1414 48.8263 37.1162C45.9504 38.2298 44.8405 41.0393 45.673 43.5195C45.8144 43.9961 46.0248 44.4495 46.2941 44.8623C43.7352 43.9775 41.1043 43.1333 38.382 42.3301L38.3058 39.9756L38.9113 38.5586L39.5167 38.0781L39.7443 37.5713L40.2492 37.0146L40.8546 36.8125L41.1818 36.2051V35.2178L41.4845 34.7881C41.8125 34.5097 41.8379 34.0538 41.8126 33.4717L41.4347 32.459L41.2326 32.3076L41.4347 31.7764L41.9386 30.3584C42.4431 29.0678 43.3013 27.651 43.5285 26.6641C43.7303 25.4493 43.3766 24.6138 43.1496 24.1582L42.3927 22.0068L42.3175 20.8428C42.2671 20.2608 42.2164 19.7041 42.1408 19.1475L42.0656 18.6914L41.8634 18.3115L41.3585 17.502C41.1668 17.2342 40.9774 16.7888 40.7775 16.2432L40.8038 16.085C82.1266 16.7177 60.1536 7.63182 112.476 4.62012L92.2316 62.8877Z" fill="#EC1C24"/>
<path d="M49.6082 35.6229H49.3307C49.028 35.7495 48.8009 36.0026 48.7505 36.2809C48.7253 36.534 48.7505 36.8883 48.8514 37.1414C48.9271 37.1414 49.028 37.192 49.1037 37.2174C49.2046 37.2174 49.3055 37.1667 49.4064 37.1667C49.1541 36.9896 49.0028 36.7112 49.0784 36.2303C49.1541 35.9013 49.3812 35.7748 49.6082 35.6229Z" fill="#EC1C24" stroke="#EC1C24" stroke-width="0.362677" stroke-miterlimit="10"/>
<path d="M49.8605 35.8254C50.1884 35.7748 50.5164 36.1291 50.4912 36.4581C50.466 36.7871 50.3146 37.0655 49.9866 37.1161C49.9109 37.1161 49.8353 37.1161 49.7596 37.1161C50.1128 37.0149 50.2389 36.7618 50.1884 36.4075C50.1632 36.205 50.0371 36.0785 49.7596 36.0279H49.5325C49.6082 35.9266 49.7596 35.8254 49.8605 35.8254Z" fill="#EC1C24" stroke="#EC1C24" stroke-width="0.362677" stroke-miterlimit="10"/>
<path d="M47.3377 42.1272C47.3377 42.0766 47.3629 42.0006 47.3629 41.95L46.7827 41.9247C46.8079 41.8741 46.7575 41.7982 46.8584 41.7476C47.0098 41.6716 47.2116 41.5957 47.4386 41.5704C47.7666 40.0519 48.8262 38.8624 50.0119 38.6599C50.0623 38.4828 50.1128 38.3562 50.1884 38.2297C50.2389 38.1538 50.3146 38.1791 50.365 38.1538V38.6093C50.3903 38.6093 50.4155 38.6093 50.4407 38.6093C50.5164 38.6093 50.5669 38.6093 50.6425 38.6346V38.1538C50.693 38.1791 50.7687 38.1538 50.8191 38.2297C50.8696 38.3309 50.9453 38.4828 50.9705 38.6852C52.131 38.9889 53.0392 39.976 53.241 41.6969C53.468 41.7729 53.6446 41.8488 53.7708 41.9247C53.8717 42.0006 53.8212 42.0513 53.8465 42.1272L53.2914 42.0766C53.2914 42.1272 53.2914 42.1778 53.2914 42.2031C53.2914 42.2537 53.2914 42.3297 53.2914 42.355L53.8212 42.3803C53.8212 42.4562 53.8465 42.5068 53.7708 42.5574C53.653 42.6249 53.4933 42.6755 53.2914 42.7093C53.1653 44.329 52.3832 45.5691 50.7687 45.8981C50.7182 46.1765 50.6425 46.4296 50.5669 46.5815C50.5164 46.6574 50.4407 46.6068 50.3903 46.6321V45.9487C50.3146 45.9741 50.2389 45.9741 50.1884 45.9741C50.1632 45.9741 50.138 45.9741 50.1128 45.9741V46.6321C50.0623 46.6068 49.9866 46.6574 49.9362 46.5562C49.8605 46.4296 49.7596 46.1765 49.7091 45.8981C48.1702 45.5944 47.3377 44.329 47.3377 42.5827C47.1107 42.5321 46.9341 42.4562 46.8079 42.3803C46.7575 42.3297 46.7827 42.279 46.7575 42.2031L47.3377 42.2284C47.3377 42.2031 47.3377 42.1778 47.3377 42.1272Z" fill="#FEFEFE" stroke="#EC1C24" stroke-width="0.362677" stroke-miterlimit="10"/>
<path d="M47.817 41.8741C48.0441 41.95 48.0945 42.2537 48.372 42.3803C48.3973 43.8988 49.2298 44.9364 50.6173 44.987C51.6769 45.0123 52.5851 44.4302 52.9887 42.9877C53.1401 42.9117 53.1653 42.9117 53.241 42.9624C53.1653 43.6963 52.9382 44.3543 52.4589 44.9617C52.358 44.8099 52.2066 44.8352 52.0553 44.9364C50.4912 46.1006 49.0027 45.6197 48.0693 44.4049C47.9179 44.2531 47.7918 44.2278 47.6657 44.2784C47.4134 43.7469 47.3125 43.1901 47.3377 42.5827L47.59 42.6587V42.2284L47.6152 41.8741H47.817Z" fill="#EC1C24"/>
<path d="M21.1262 35.4205L18.3511 40.2291L17.4934 40.8365L5.23276 45.392L8.1844 44.7846L10.8838 43.8735L12.7758 43.6963L16.9888 42.5068L19.0071 41.9753L18.3259 40.5327L20.6216 37.5464L21.1262 35.4205Z" fill="#EC1C24"/>
<path d="M41.3335 32.3834L41.4344 31.776L42.2417 29.9032C42.5445 28.9921 43.6545 27.423 43.6292 25.9551C43.5788 24.6897 43.1752 24.0317 42.8976 23.323C42.5697 22.7916 42.5949 22.2348 42.5192 22.0323C42.3426 21.678 42.3679 20.7922 42.2922 20.3113C42.2165 19.7292 42.3426 18.8181 41.8633 18.312C41.8129 18.236 41.8129 18.1095 41.6867 17.9323C41.611 17.8564 41.4597 17.6539 41.3588 17.5021C41.1822 17.2743 41.1065 16.8694 40.9803 16.6163C40.4506 15.1737 39.9965 13.3515 38.9621 11.4787L37.1962 9.27686L38.0035 9.78303L39.7694 12.5923L41.2326 16.8947L42.267 18.2107L42.5697 20.2607L42.7211 21.8551L43.377 23.9811C43.4779 24.5631 43.5788 25.1199 43.6545 25.6514C43.6293 27.3471 42.6454 28.9668 42.1408 30.6119L41.3335 32.3834Z" fill="#EC1C24" stroke="#EC1C24" stroke-width="0.725354" stroke-miterlimit="10"/>
<path d="M24.2544 9.27687C23.5985 9.20094 23.0183 9.32749 22.5137 9.58057C21.883 10.0361 21.3785 10.4411 21.1262 10.8966C21.1766 10.6688 22.5894 9.75773 22.8921 9.65649C23.1949 9.55526 23.548 9.52995 23.9012 9.52995C24.0526 9.52995 24.2292 9.40341 24.3553 9.40341C24.6581 9.40341 24.3049 9.30217 24.2544 9.27687Z" fill="#FEFEFE"/>
<path d="M21.5551 9.70711C20.9496 9.85896 20.4703 10.0361 19.89 10.5676C19.4107 11.0738 19.108 11.4281 18.6539 11.9342C19.7134 10.9219 20.6216 10.2386 21.5551 9.70711Z" fill="#FEFEFE"/>
<path d="M19.7387 11.2762C19.2089 11.6305 18.7043 12.0608 18.3007 12.6935C17.1402 14.3892 16.6609 16.1608 16.5095 17.8817C17.0393 15.5027 18.0484 13.0731 19.7387 11.2762Z" fill="#FEFEFE"/>
<path d="M25.869 9.02378C24.4058 8.36576 22.4128 8.82131 20.8235 9.47933C22.8669 8.84662 24.4815 8.72007 25.869 9.02378Z" fill="#FEFEFE"/>
<path d="M26.8276 7.80898C27.2817 7.8849 27.4836 7.96083 28.3665 7.85959C28.4927 7.83429 28.6188 7.91021 28.7197 7.91021C28.8458 7.91021 29.1486 7.98614 29.2495 8.03675C29.4513 8.08737 28.8963 7.78367 28.8711 7.75836C28.5936 7.63182 28.0638 7.5812 27.7611 7.5812C27.5845 7.5812 27.4079 7.5812 27.2565 7.65713C27.1808 7.70774 26.9033 7.80898 26.8276 7.80898Z" fill="#EC1C24"/>
<path d="M91.36 50.7067C86.0622 44.4303 79.4778 50.5549 79.5787 57.54C79.6291 62.3739 84.044 68.7769 88.7868 66.3473C82.8583 70.6245 75.7441 65.7399 75.5422 57.2616C75.7441 46.708 86.3901 42.8358 91.36 50.7067Z" fill="#FECA07"/>
<path d="M81.2689 51.5672C84.4476 46.4802 90.0734 48.429 92.1925 53.6425C93.1259 56.1734 92.9998 60.0709 91.3095 63.3863C89.039 67.5115 83.489 66.6004 81.2185 62.7029C84.5738 65.6134 88.9129 63.614 89.2156 57.7425C89.1147 49.2642 84.0692 48.758 81.2689 51.5672Z" fill="#FECA07"/>
<path d="M68.5542 47.037C63.5339 45.4932 58.4883 48.0493 58.6902 51.9215C58.8668 54.2246 59.5227 55.2116 61.9193 56.224C64.3916 57.1604 66.9144 57.2869 68.1001 59.6659C69.4624 61.7412 66.6873 69.3337 60.1786 66.4992C62.4995 68.4732 67.4694 68.4226 69.639 67.1825C73.4483 65.3603 73.8015 61.0073 72.5654 59.2357C70.3706 55.7431 64.543 55.5913 63.1302 53.44C61.5409 51.3394 63.1302 47.0117 68.5542 47.037Z" fill="#FECA07"/>
<path d="M63.5086 53.516C63.0293 52.6808 63.332 51.7191 63.9375 51.1623C64.77 50.3524 66.3089 50.2512 67.2423 51.3141C68.1505 52.4024 67.6712 54.5536 65.5016 54.7055C66.8135 55.0092 68.8569 55.6419 70.421 56.3252C73.8015 53.4147 72.8429 48.5555 69.2101 47.7203C64.3159 46.9358 61.5913 50.732 63.5086 53.516Z" fill="#FECA07"/>
<path d="M60.5065 56.3252C62.3734 57.4135 65.4259 57.3628 66.6873 58.2739C64.2402 57.3628 61.9445 59.3622 62.777 61.7159C63.4834 63.7912 66.8639 64.5251 68.2262 61.7412C67.5955 66.1702 61.1372 68.6757 58.337 64.4745C57.0504 62.0955 56.9242 58.3499 60.5065 56.3252Z" fill="#FECA07"/>
<path d="M74.1547 19.7545C74.4574 21.0706 74.7602 22.3866 75.0377 23.7027C75.3656 25.0187 75.6684 26.3347 75.9459 27.6761C77.6866 27.4989 79.4021 27.3218 81.168 27.1699C82.9592 26.9928 84.7503 26.8156 86.5919 26.6384C84.9774 27.6255 83.3628 28.6378 81.7735 29.6248C80.2093 30.6119 78.6704 31.5736 77.1063 32.51C77.4595 33.8766 77.7875 35.218 78.1407 36.5846C78.4686 37.9513 78.8218 39.3433 79.175 40.7352C77.8884 39.9254 76.627 39.1155 75.3656 38.2803C74.1295 37.4957 72.9185 36.7365 71.7076 35.9519C70.2444 36.863 68.8064 37.7741 67.3685 38.6852C65.9557 39.5963 64.5598 40.4906 63.1807 41.3679C63.8618 40.0266 64.5682 38.6852 65.2746 37.3186C65.9809 35.9519 66.6873 34.5853 67.3937 33.2186C66.2332 32.4847 65.0727 31.776 63.9375 31.0674C62.8023 30.3841 61.667 29.7008 60.557 28.9921C62.0707 28.8656 63.6095 28.739 65.1737 28.6125C66.7378 28.4859 68.3271 28.3341 69.9417 28.2076C70.6228 26.8156 71.3292 25.3983 72.0356 24.0064C72.7419 22.6144 73.4483 21.1718 74.1547 19.7545Z" fill="#FFF100"/>
<path fill-rule="evenodd" clip-rule="evenodd" d="M77.5604 78.1411C78.0398 78.1411 78.3173 78.0651 78.393 77.9386C78.4686 77.8374 78.5191 77.4577 78.5191 76.8756H73.9277V75.9139L77.1063 72.9022L78.9984 71.1053H80.4112V75.7621H82.1771V76.8756H80.4112C80.4112 77.4577 80.4868 77.812 80.5625 77.9386C80.6634 78.0651 80.9662 78.1411 81.4455 78.1411H82.1771V79.0775H76.8541V78.1411H77.5604ZM78.5191 75.7621L78.5948 72.9275L77.1063 74.3448L75.5927 75.7621H78.5191ZM87.0965 78.3688C87.6767 78.3688 88.1813 78.2423 88.5849 77.9639C88.9886 77.6602 89.2913 77.2046 89.2913 76.6479V76.3695C89.2913 75.7874 89.0895 75.3065 88.6101 74.9269C88.2065 74.5979 87.702 74.4207 87.0965 74.4207C86.7685 74.4207 86.4406 74.4966 86.0874 74.6232C85.7594 74.775 85.4819 74.9522 85.2044 75.2306L84.1701 75.1294L84.6242 70.9788C85.7847 71.2572 86.8442 71.3837 87.8533 71.3837C88.812 71.3837 89.8968 71.2572 91.032 70.9788C90.7545 71.6621 90.2499 72.143 89.5688 72.4467C88.9802 72.7166 88.2486 72.8516 87.374 72.8516C86.8947 72.8516 86.2892 72.7757 85.6081 72.6997L85.4819 73.8892C85.936 73.7374 86.3649 73.6362 86.7181 73.5349C87.0965 73.459 87.4749 73.4337 87.8533 73.4337C88.1308 73.4337 88.3831 73.459 88.6606 73.4843C89.4931 73.6362 90.1743 73.9399 90.7293 74.446C91.2591 74.9269 91.5366 75.509 91.5366 76.2176C91.5366 77.2046 91.1077 77.9892 90.3004 78.546C89.5688 79.0269 88.6606 79.2799 87.5506 79.2799C87.0713 79.2799 86.5667 79.2293 86.0622 79.1028C85.3306 78.9509 84.7503 78.6472 84.3467 78.2423C83.9935 77.888 83.8169 77.5083 83.8169 77.0781C83.8169 76.7491 83.9178 76.496 84.1701 76.2682C84.3719 76.0405 84.6999 75.9392 85.0783 75.9392C85.2044 75.9392 85.3558 75.9645 85.5324 75.9645C85.7342 75.9645 85.9108 76.0911 86.1126 76.2935C86.3144 76.4707 86.3901 76.6732 86.3901 76.9263C86.3901 77.1793 86.2808 77.3987 86.0622 77.5843C85.8351 77.7614 85.5324 77.8627 85.1035 77.8627C85.7342 78.1917 86.3901 78.3688 87.0965 78.3688ZM68.8064 78.4194C69.3867 78.2423 69.8155 77.8374 70.0426 77.2046C70.1687 76.825 70.2192 76.2429 70.2192 75.509C69.8156 75.7621 69.3867 75.9645 68.983 76.0658C68.8317 76.0911 68.6803 76.1417 68.5289 76.167C68.2767 76.2176 67.9992 76.2429 67.7469 76.2429C66.8639 76.2429 66.1323 75.9898 65.5268 75.4584C64.9214 74.9522 64.6187 74.3448 64.6187 73.6615C64.6187 73.3578 64.6943 73.0541 64.8457 72.7504C64.9718 72.4467 65.1737 72.1683 65.4259 71.9152C65.8044 71.6115 66.2332 71.3584 66.763 71.2066C67.2676 71.0294 67.8226 70.9535 68.4028 70.9535C68.4533 70.9535 68.4953 70.9535 68.5289 70.9535C69.0083 70.9535 69.4624 71.0294 69.866 71.1559C70.3201 71.2825 70.749 71.4596 71.0769 71.7127C71.5815 72.067 71.9851 72.5479 72.2122 73.1806C72.4392 73.7121 72.5401 74.3195 72.5401 75.0028L72.5149 75.4077L72.4897 75.7621C72.3131 76.9009 71.8338 77.7614 71.0769 78.3688C70.421 78.9003 69.5885 79.1787 68.5289 79.2546C68.3523 79.2799 68.1505 79.2799 67.9487 79.2799C67.2928 79.2799 66.6621 79.1534 66.1323 78.875C65.5016 78.5713 65.1737 78.1664 65.1737 77.6602V77.5843L65.2241 77.3312C65.2409 77.1793 65.3671 77.0275 65.6025 76.8756C65.8548 76.7407 66.1239 76.6732 66.4098 76.6732C66.7378 76.6732 67.0153 76.7491 67.2423 76.9009C67.4441 77.0528 67.5703 77.2806 67.5703 77.5337C67.4946 77.888 67.2928 78.1157 66.9144 78.2423C67.1162 78.3435 67.2928 78.4195 67.4946 78.4448C67.5955 78.4954 67.6964 78.4954 67.7721 78.4954C67.873 78.5207 67.9487 78.5207 68.0748 78.5207C68.2262 78.5207 68.3776 78.5207 68.5289 78.4954C68.6046 78.4701 68.7055 78.4448 68.8064 78.4194ZM69.639 74.7244C69.9669 74.4207 70.1435 74.0158 70.1435 73.4843C70.1435 73.0034 69.9921 72.6238 69.6642 72.3454C69.3867 72.0923 69.0083 71.9405 68.5289 71.9405C68.4785 71.9405 68.4028 71.9152 68.3271 71.9152C67.8226 71.9658 67.4442 72.143 67.2171 72.472C67.0153 72.7251 66.9144 73.1047 66.9144 73.5349V73.7374V73.9399C66.9901 74.3195 67.1919 74.6232 67.4946 74.851C67.7721 75.0534 68.1001 75.1294 68.4785 75.1294H68.5289C68.9578 75.1294 69.311 75.0028 69.639 74.7244ZM57.8829 78.1411H58.6145C58.9677 78.1411 59.2199 78.1157 59.3965 78.0145C59.5984 77.9133 59.7245 77.7108 59.7245 77.4071V73.2312H57.8829V72.3201C58.6061 72.2526 59.1106 72.1598 59.3965 72.0417C59.8002 71.8646 60.1786 71.5609 60.4813 71.1053H61.667V77.4071C61.667 77.7108 61.7427 77.9133 61.9445 78.0398C62.0707 78.1157 62.3229 78.1664 62.6509 78.1664L63.0293 78.1411C63.1302 78.1411 63.2059 78.1411 63.2816 78.1411C63.3489 78.1411 63.4161 78.1411 63.4834 78.1411V79.0775H57.8829V78.1411Z" fill="#EC1C24"/>
<path fill-rule="evenodd" clip-rule="evenodd" d="M70.6733 88.2138C71.4049 88.1379 71.859 87.7329 72.1113 86.9737C72.2626 86.535 72.3383 85.9023 72.3383 85.0755C72.3383 84.2404 72.2374 83.6077 72.1113 83.1521C71.859 82.4182 71.3797 81.9879 70.6733 81.912C70.6481 81.912 70.5472 81.912 70.421 81.912H70.3958C69.6558 81.912 69.126 82.2916 68.8065 83.0509C68.6299 83.557 68.5289 84.2404 68.5289 85.0755C68.5289 85.9107 68.6299 86.5687 68.8065 87.0496C69.1344 87.8089 69.639 88.2138 70.3958 88.2138H70.6733ZM70.5472 80.925H70.7994C71.8842 81.0515 72.7672 81.4311 73.4988 82.0892C74.2809 82.8484 74.6593 83.8101 74.6593 84.9996C74.6593 85.3286 74.634 85.6576 74.5584 86.012C74.3818 87.0243 73.8772 87.8089 73.0699 88.3909C72.3131 88.9224 71.4554 89.2008 70.4715 89.2008H70.421C69.2858 89.1755 68.3019 88.8465 67.5198 88.1379C66.6116 87.4039 66.1828 86.3663 66.1828 85.0755C66.1828 83.7342 66.6116 82.6966 67.4946 81.9373C68.2514 81.254 69.2101 80.925 70.3201 80.925H70.5472ZM75.5422 87.1508C75.845 86.6447 76.3747 86.1891 77.1064 85.7842L78.9227 85.0249C79.6796 84.6959 80.1337 84.291 80.3355 83.8607C80.4112 83.6583 80.4364 83.4558 80.4364 83.304C80.4364 82.8737 80.2346 82.4941 79.8309 82.2157C79.4273 81.9373 78.9732 81.8108 78.4182 81.8108C78.0398 81.8108 77.6866 81.8867 77.3082 82.0638C76.955 82.2157 76.6775 82.4688 76.4757 82.7978C76.6523 82.7472 76.8288 82.7472 76.9802 82.7472C77.3334 82.7472 77.5857 82.7978 77.7623 83.0003C77.9389 83.1521 78.0398 83.3546 78.0398 83.6077C78.0398 83.8354 77.9641 84.0379 77.8127 84.2404C77.6614 84.4175 77.4343 84.5188 77.1568 84.5947C77.0811 84.5947 77.0307 84.62 76.955 84.62C76.8793 84.62 76.8288 84.62 76.7532 84.62C76.3327 84.62 76.0047 84.4935 75.7693 84.2404C75.5422 83.9873 75.4161 83.6836 75.4161 83.304C75.4161 83.0171 75.4834 82.7219 75.6179 82.4182C75.7693 82.1145 75.9963 81.8614 76.3243 81.6083C76.627 81.3805 77.0307 81.2034 77.4848 81.0768C77.9389 80.9503 78.4182 80.8997 78.8975 80.8997C79.9318 80.8997 80.7896 81.1021 81.5212 81.5324C82.3032 82.0132 82.7069 82.6206 82.7069 83.3799C82.7069 83.5064 82.6817 83.633 82.6817 83.7848C82.6312 83.962 82.606 84.0885 82.5808 84.1898C82.3537 84.8478 81.8239 85.3033 80.9662 85.5817L78.5443 86.1638C77.5857 86.4422 76.9045 86.8978 76.4757 87.5558C76.6775 87.4798 76.9045 87.3786 77.1316 87.3533C77.2577 87.3027 77.3839 87.3027 77.4848 87.3027C77.6109 87.2774 77.737 87.2774 77.8632 87.2774C78.3677 87.3533 78.8218 87.4292 79.2003 87.4798C79.3516 87.4798 79.8057 87.5558 80.5373 87.6317H80.7896C81.2437 87.6317 81.5716 87.5052 81.7735 87.2268C81.8996 87.0243 81.9753 86.67 82.051 86.1638H82.9087C82.9087 87.1255 82.7321 87.8595 82.3537 88.3909C81.9753 88.9224 81.3951 89.2008 80.6382 89.2008C80.1841 89.2008 79.6375 89.0911 78.9984 88.8718L77.9641 88.4416C77.51 88.256 77.1484 88.1632 76.8793 88.1632C76.6523 88.1632 76.4504 88.2391 76.3243 88.3656C76.1729 88.5175 76.072 88.72 76.0468 89.0237H75.1638C75.1638 88.2307 75.29 87.6064 75.5422 87.1508ZM87.147 88.3403C87.7272 88.3403 88.2065 88.1885 88.6102 87.9101C89.039 87.6064 89.3418 87.1761 89.3418 86.5941V86.3157C89.3418 85.7589 89.1147 85.278 88.6606 84.8984C88.257 84.5694 87.7272 84.3669 87.147 84.3669C86.819 84.3669 86.491 84.4428 86.1379 84.5947C85.7847 84.7212 85.5072 84.9237 85.2549 85.1768L84.2206 85.1009L84.6746 80.925C85.8351 81.2034 86.8947 81.3552 87.8786 81.3552C88.8624 81.3552 89.922 81.2034 91.0825 80.925C90.7966 81.6167 90.3088 82.1145 89.6193 82.4182C89.039 82.6712 88.3074 82.7978 87.3992 82.7978C86.9199 82.7978 86.3144 82.7472 85.6585 82.6459L85.5324 83.8607C85.9865 83.7089 86.3901 83.5824 86.7685 83.5064C87.1217 83.4305 87.5001 83.3799 87.8786 83.3799C88.1813 83.3799 88.4336 83.4052 88.7111 83.4558C89.5184 83.5824 90.1995 83.9114 90.7545 84.4175C91.3095 84.8984 91.587 85.4805 91.587 86.1638C91.587 87.1508 91.1582 87.9354 90.3509 88.4669C89.6193 88.973 88.7111 89.2261 87.5758 89.2261C87.0965 89.2261 86.6172 89.1755 86.1126 89.049C85.3558 88.8971 84.8008 88.5934 84.3719 88.1885C84.044 87.8089 83.8421 87.4545 83.8421 87.0243C83.8421 86.6953 83.9683 86.4422 84.1953 86.2144C84.4224 86.012 84.7503 85.9107 85.1287 85.9107C85.2549 85.9107 85.4063 85.9107 85.5828 85.936C85.7847 85.936 85.9613 86.0626 86.1631 86.2397C86.3397 86.4422 86.4406 86.6447 86.4406 86.8978C86.4406 87.1508 86.3397 87.3533 86.1126 87.5305C85.8856 87.6823 85.5576 87.7835 85.1287 87.7835C85.7847 88.1379 86.4406 88.3403 87.147 88.3403ZM58.1352 87.1508C58.4379 86.6447 58.9172 86.1891 59.674 85.7842L61.5157 85.0249C62.2473 84.6959 62.7014 84.291 62.9032 83.8607C62.9536 83.6583 63.0041 83.4558 63.0041 83.304C63.0041 82.8737 62.8023 82.4941 62.3986 82.2157C62.0202 81.9373 61.5409 81.8108 61.0111 81.8108C60.6075 81.8108 60.2291 81.8867 59.8759 82.0638C59.5227 82.2157 59.2452 82.4688 59.0433 82.7978C59.2199 82.7472 59.3965 82.7472 59.5731 82.7472C59.9011 82.7472 60.1534 82.7978 60.3552 83.0003C60.5066 83.1521 60.6075 83.3546 60.6075 83.6077C60.6075 83.8354 60.5318 84.0379 60.3804 84.2404C60.2291 84.4175 60.002 84.5188 59.6993 84.5947C59.674 84.5947 59.5984 84.62 59.5227 84.62C59.447 84.62 59.3713 84.62 59.3209 84.62C58.9172 84.62 58.6145 84.4935 58.337 84.2404C58.1099 83.9873 57.9838 83.6836 57.9838 83.304C57.9838 83.0003 58.0595 82.7219 58.2108 82.4182C58.3622 82.1145 58.6145 81.8614 58.892 81.6083C59.2199 81.3805 59.5984 81.2034 60.0525 81.0768C60.5066 80.9503 60.9859 80.8997 61.4904 80.8997C62.4995 80.8997 63.3573 81.1021 64.0889 81.5324C64.8962 82.0132 65.2746 82.6206 65.2746 83.3799C65.2746 83.5064 65.2746 83.633 65.2241 83.7848C65.2241 83.962 65.1737 84.0885 65.1484 84.1898C64.9214 84.8478 64.3916 85.3033 63.5339 85.5817L61.112 86.1638C60.1534 86.4422 59.447 86.8978 59.0433 87.5558C59.2452 87.4798 59.4722 87.3786 59.6993 87.3533C59.8254 87.3027 59.9515 87.3027 60.0777 87.3027C60.1786 87.2774 60.3047 87.2774 60.4309 87.2774C60.9354 87.3533 61.3895 87.4292 61.7932 87.4798C61.9193 87.4798 62.3734 87.5558 63.105 87.6317H63.3573C63.8366 87.6317 64.1646 87.5052 64.3412 87.2268C64.4673 87.0243 64.5682 86.67 64.6439 86.1638H65.4764C65.4764 87.1255 65.2746 87.8595 64.9214 88.3909C64.543 88.9224 63.988 89.2008 63.2059 89.2008C62.7518 89.2008 62.222 89.0996 61.5913 88.8718L60.5318 88.4416C60.0777 88.2644 59.7245 88.1632 59.447 88.1632C59.2199 88.1632 59.0434 88.2391 58.892 88.3656C58.7659 88.5175 58.6649 88.72 58.6397 89.0237H57.7567C57.7567 88.2307 57.8829 87.6064 58.1352 87.1508Z" fill="#EC1C24"/>
<path d="M49.9362 61.7159C51.0209 61.7159 51.9291 61.564 51.9291 61.3869C51.9291 61.1844 51.0209 61.0326 49.9362 61.0326C48.8261 61.0326 47.9179 61.1844 47.9179 61.3869C47.9179 61.564 48.8261 61.7159 49.9362 61.7159Z" fill="#FEFEFE" stroke="#EC1C24" stroke-width="0.362677" stroke-miterlimit="10"/>
<path d="M48.8766 48.1506H50.5164L51.1471 48.1759L51.2985 47.9228L50.8444 47.5938H50.7687V46.9611V46.8598C50.2893 46.9358 49.7848 46.9358 49.2802 46.8345L49.3055 46.9611V47.5938H49.2046L48.7505 47.8722L48.8766 48.1506Z" stroke="#EC1C24" stroke-width="0.362677" stroke-miterlimit="10"/>
<path d="M48.8261 56.9326H51.0714V48.1759H48.8261V50.2259H48.5739V51.2129H48.8261V56.9326Z" fill="#EC1C24" stroke="#EC1C24" stroke-width="0.362677" stroke-miterlimit="10"/>
<path d="M49.3055 46.8852L49.9109 46.9358V47.5179L50.1127 47.5685V47.6697H49.6082L49.3055 47.9734L49.3307 48.1759L48.8766 48.1506L48.7505 47.8722L49.1793 47.5938H49.3055V46.8852Z" fill="#EC1C24" stroke="#EC1C24" stroke-width="0.362677" stroke-miterlimit="10"/>
<path d="M50.3903 56.9326H50.7687V48.4796H50.3903V56.9326Z" fill="#FEFEFE"/>
<path d="M48.6748 58.603H50.8444V56.9579H48.6748V58.603Z" fill="#EC1C24" stroke="#EC1C24" stroke-width="0.362677" stroke-miterlimit="10"/>
<path d="M49.7596 58.5017H50.0371V56.9579H49.7596V58.5017Z" fill="#FEFEFE"/>
<path d="M50.1884 56.9579H50.4912L50.8444 56.9832V57.4388L50.4912 57.2869H50.1884V56.9579Z" fill="#FEFEFE"/>
<path d="M50.8444 57.0338H51.2228V56.9579H50.8444V57.0338Z" fill="#EC1C24"/>
<path d="M50.8444 58.6283H51.2228V58.527H50.8444V58.6283Z" fill="#EC1C24"/>
<path d="M51.1471 58.6283V56.9579H51.2228V58.6283H51.1471Z" fill="#EC1C24"/>
<path d="M48.8261 59.9949H51.0714V58.6536H48.8261V59.9949Z" fill="#EC1C24"/>
<path d="M48.7 61.3869H51.1975V60.0202H48.7V61.3869Z" fill="#FEFEFE" stroke="#EC1C24" stroke-width="0.362677" stroke-miterlimit="10"/>
<path d="M49.5325 60.0961L49.5578 60.6276L49.8857 60.6529L49.9362 60.4252H50.4659L50.4912 61.1338L49.9362 61.1591L49.8605 60.9819L49.5325 61.0072V61.235H48.7V60.0708L49.5325 60.0961Z" fill="#EC1C24"/>
<path d="M47.9179 61.4628C48.3216 61.8424 51.3741 61.9184 51.9544 61.4628V89.2261H47.9179V61.4628Z" fill="#EC1C24" stroke="#EC1C24" stroke-width="0.362677" stroke-miterlimit="10"/>
<path d="M50.1884 62.0955C50.7687 62.0955 51.2985 62.0449 51.7273 61.8931V62.298C51.3069 62.433 50.7939 62.4836 50.1884 62.4498V62.0955Z" fill="#FEFEFE"/>
<path d="M51.1975 63.0066H51.5507H51.576V89.2008C51.576 89.2261 51.5507 89.2261 51.5507 89.2261H51.1975C51.1723 89.2261 51.1471 89.2261 51.1471 89.2008V63.0066C51.1471 63.0066 51.1723 63.0066 51.1975 63.0066Z" fill="#FEFEFE"/>
<path d="M38.7603 21.2224C38.6594 21.1718 38.4828 21.1971 38.3819 21.1718C38.1296 21.0959 38.3062 21.0706 38.3062 20.8934C38.3062 20.7163 38.7855 20.3619 38.9117 20.2354C39.391 19.7292 40.1983 19.6786 40.8038 19.8811C41.1569 20.0076 41.5606 20.2354 41.8885 20.5138C41.8885 20.3873 41.8885 19.9317 41.8381 19.8052C41.7624 19.6533 41.611 19.4762 41.611 19.3243C41.5858 18.8941 41.384 18.7169 41.384 18.6157C41.384 18.3626 41.5606 18.3373 41.2831 18.3373C40.9551 18.312 40.9803 18.3626 40.7028 18.4638C40.501 18.5397 40.4001 18.4385 40.2487 18.4385C40.0974 18.3879 39.7442 18.6157 39.5676 18.6916C39.2901 18.8181 39.1387 19.0712 38.8612 19.3749C38.4576 19.8052 38.1548 20.3113 37.9783 20.6403C37.7512 21.0453 37.7008 21.3237 37.5998 21.678C37.5242 21.8805 37.6251 22.1082 37.6251 22.1588C37.6251 22.2095 37.7512 21.9564 37.8017 21.9564C37.8773 22.007 37.8521 22.007 37.9278 22.0829C38.0792 22.2095 38.2558 21.8298 38.3567 21.7286C38.3819 21.7033 38.4071 21.6021 38.4576 21.5768C38.508 21.5514 38.6342 21.5514 38.6846 21.5768C38.7099 21.6274 38.8612 21.8805 38.8864 21.8805C38.9621 21.8805 39.391 21.9311 39.4162 21.9564C39.5171 22.2095 39.946 22.3107 40.1731 22.2095C40.2992 22.1335 40.4506 22.1335 40.5262 22.007C40.5262 21.9817 40.7028 21.7033 40.7281 21.7033C40.7785 21.7286 40.7785 21.7286 40.8038 21.7286C40.9047 21.7792 41.0308 21.8551 41.1065 21.8805C41.1065 21.8805 41.1822 21.9311 41.1822 21.9564C41.2074 21.9564 41.2326 21.9817 41.2579 22.007C41.2831 22.007 41.1822 22.1588 41.2074 22.1588C41.2326 22.1842 41.384 22.2095 41.4344 22.1842L41.8129 22.1588L41.7624 22.0323C41.5606 21.8551 41.6363 21.5514 41.4344 21.3237C41.2326 21.0959 40.8794 20.9694 40.4253 20.8428C40.0974 20.8175 39.8956 20.7669 39.6937 20.7922C39.4162 20.8428 39.0378 21.2731 38.7603 21.2224Z" fill="#EC1C24"/>
<path d="M33.513 64.2974C33.4877 64.272 33.1345 64.4745 33.0084 64.3733C32.8066 64.2467 32.6805 64.2467 32.5039 63.9937C32.2264 63.614 31.9741 63.4622 31.9741 62.9054C31.9741 62.5764 32.075 62.3992 32.1507 62.1461C32.2264 61.9184 32.857 61.3869 33.1093 61.3869C33.1598 61.3869 33.513 61.4628 33.3868 61.5134C33.185 61.5894 32.857 61.64 32.7309 61.9184C32.5291 62.298 32.4029 62.8295 32.6048 63.285C33.0336 64.1202 33.513 64.2467 34.1689 63.614C34.1941 63.5634 34.3202 63.2344 34.3202 63.285C34.3202 63.7912 33.9671 64.1455 33.513 64.2974Z" fill="#EC1C24"/>
<path d="M34.3455 62.2474C34.5473 62.3486 34.8753 62.3739 35.1275 62.3739C35.2284 62.3739 35.3041 62.4245 35.3798 62.4245C35.4807 62.4245 35.5312 62.4751 35.5312 62.5511C35.5312 62.627 35.5312 62.7282 35.4555 62.7282C35.1275 62.7282 34.8753 62.627 34.5725 62.627C34.5473 62.627 34.4716 62.627 34.4212 62.627C34.3455 62.5764 34.3202 62.3739 34.3455 62.2474Z" fill="#EC1C24"/>
<path d="M33.8409 62.8295C33.8409 62.7535 33.8409 62.7535 33.8409 62.6776C33.8409 62.5764 33.7652 62.5511 33.7148 62.5258C33.6643 62.4498 33.5886 62.4498 33.5634 62.3739C33.5382 62.298 33.4625 62.2221 33.4121 62.1968C33.2607 62.1461 33.1346 62.1714 33.1346 62.3486C33.1346 62.5005 33.4121 62.5511 33.513 62.5764C33.5382 62.5764 33.5634 62.6523 33.5634 62.7029C33.5886 62.7282 33.6643 62.7788 33.6643 62.8295C33.7148 62.8801 33.7905 62.8295 33.8409 62.8295Z" fill="#EC1C24"/>
<path d="M33.0589 62.7029C33.1093 62.7029 33.185 62.7029 33.2355 62.7029C33.3364 62.7029 33.3364 62.8548 33.3868 62.9054C33.4373 63.0825 33.7148 63.0825 33.7148 63.3103C33.7148 63.3862 33.513 63.3356 33.4625 63.3356C33.2607 63.2597 33.3868 62.956 33.0589 62.956C32.9832 62.956 32.8823 62.7029 33.0589 62.7029Z" fill="#EC1C24"/>
<path d="M30.6875 22.3613C30.7127 22.4119 30.7631 22.3866 30.8136 22.4119C30.9145 22.4625 31.1163 22.5385 31.192 22.6144C31.5452 22.8169 31.8732 22.8675 32.4029 22.8422C32.7309 22.7916 32.3525 22.9181 32.2768 22.9181C32.1759 22.9434 31.9741 22.994 31.8984 22.9434C31.8227 22.9181 31.3686 22.8675 31.3182 22.8675C31.2172 22.8675 30.7379 22.6903 30.7127 22.6144C30.6875 22.5132 30.5613 22.4372 30.5361 22.3613C30.5361 22.336 30.41 22.3107 30.4856 22.3107C30.5613 22.3107 30.637 22.336 30.6875 22.3613Z" fill="#EC1C24"/>
<path d="M38.609 22.2854C39.1387 22.6397 39.946 22.665 40.5767 22.4372C40.6524 22.4879 40.2235 22.665 40.1478 22.665C39.8451 22.7409 39.7442 22.8169 39.4415 22.8169C39.3658 22.8169 38.9621 22.7409 38.9117 22.6903C38.8108 22.665 38.7099 22.6144 38.609 22.4372C38.5585 22.336 38.4324 22.6144 38.4324 22.4119C38.4324 22.2854 38.5333 22.2854 38.609 22.2854Z" fill="#EC1C24"/>
<path d="M35.9601 7.5812C36.0862 7.63182 36.7673 8.06206 36.8935 8.11268C37.6755 8.34045 37.8017 9.12501 38.0035 9.35279L38.8865 10.1374L39.7694 11.2003L40.0722 11.6052L40.3497 12.7188L40.7785 13.6805L41.384 14.87L41.4849 15.4015L41.5101 16.2367L41.9138 17.1478L42.0147 17.578L42.1913 18.7169L41.8633 18.2107L41.4345 17.6033V17.4009L41.2579 17.1984L40.9299 16.4898L40.6524 15.8317L39.946 13.3515L39.391 12.3139C39.3406 12.0861 39.2901 11.8583 39.2649 11.6052C38.9621 11.0231 38.2558 10.6688 37.8521 10.0867L38.2305 10.3145L38.4828 10.5423L38.836 10.8966C38.7603 10.6182 37.7764 9.85896 37.6755 9.70711L37.398 9.50464L36.9944 8.64415L35.9601 7.5812Z" fill="#FEFEFE"/>
<path d="M36.5403 8.06206C36.8178 8.21391 37.2719 8.4923 37.6755 8.87193L38.6342 9.90957L39.4415 10.6182L39.7442 11.1497L39.9208 11.4028L40.1983 11.8836V12.1873L40.8542 13.8577L40.9299 14.0095C40.9803 14.2626 41.2831 14.5157 41.384 14.87C41.4344 14.9966 41.4849 15.3256 41.4849 15.4774C41.4849 15.6293 41.4849 15.6799 41.4849 15.9077L41.5101 16.2367L41.5606 16.5404L40.9803 16.0848C41.2074 16.5404 41.5354 16.591 41.8381 17.0719L41.8885 17.6539L41.8633 18.3626L41.5606 17.4515L41.1822 16.7682L40.7785 16.2873L40.5262 15.5027L40.7533 15.8317L40.9551 15.9583L40.7028 15.7811L40.501 15.2243L40.8542 15.7305L41.5101 16.2367L41.3083 15.8317L40.5767 15.0725L40.4506 14.87C39.9965 14.2626 40.0469 13.7058 39.9712 13.5034L40.4253 14.212L40.0217 13.5793C39.8703 13.3515 39.946 13.3262 39.8703 13.1997C39.7946 13.0984 39.7694 12.9972 39.6685 12.8453L39.4667 12.1873L39.6937 12.4657L40.7785 13.6805C40.6524 13.5034 40.6272 13.2503 40.5262 13.0984C40.3244 12.8453 40.1226 12.6935 40.0217 12.5163L39.4415 11.9849L39.2901 11.6559L40.2487 12.4404L39.0883 11.3268C39.2396 11.504 40.3497 12.2379 39.063 11.1497C38.9874 11.0738 38.8864 10.9725 38.836 10.8966C38.6342 10.6182 38.508 10.441 38.7351 10.7954C38.8864 11.0484 38.1548 10.188 37.726 9.78303C38.0539 10.2386 38.1801 9.93488 38.4324 10.0867C38.6846 10.2386 39.1387 10.4917 39.3405 10.6688C38.6594 9.9855 38.508 9.88427 38.0539 9.58057L37.5242 9.42871L37.2214 9.0744L37.0196 8.4923L36.4394 8.08737L36.2375 7.85959L36.5403 8.06206Z" fill="#EC1C24"/>
<path d="M38.3567 22.8422C38.4323 22.8675 38.4576 22.7916 38.5333 22.8169C38.6342 22.8675 38.7603 23.0193 38.836 23.0699C39.2144 23.323 39.4415 23.3737 39.7442 23.2977C39.4919 23.3737 39.3405 23.4496 39.2144 23.4749C39.0883 23.5002 38.6846 23.4243 38.8108 23.5508C38.8864 23.6267 38.5837 23.2724 38.5333 23.2471C38.4323 23.1965 38.3819 22.8169 38.3567 22.8422Z" fill="#EC1C24"/>
<path d="M41.1317 14.7182L40.9047 14.4651L40.6524 14.212L40.9551 14.6676L41.2326 15.0978L41.4849 15.9077L41.3335 14.9966L41.1317 14.7182Z" fill="#FEFEFE"/>
<path d="M41.611 32.3075L41.8885 33.0668V33.8513C42.0651 33.3705 42.1661 32.9402 42.0651 32.7378L41.939 32.2316L41.6867 31.776L41.611 31.3711L41.5354 31.2446L41.1822 30.9915L41.3588 31.8773L41.4597 32.0291L41.5101 32.7125L41.712 32.9908L41.611 32.3075Z" fill="#FEFEFE"/>
<path d="M37.8269 38.255L37.726 37.9513C37.8773 38.0778 38.0792 38.2803 38.1296 38.4828L38.2305 39.3686C38.2305 39.6976 38.5837 39.8494 38.7351 39.976C39.0126 40.2797 38.8865 40.4821 39.0126 40.7605L39.0378 41.7729C38.8865 42.0006 38.6089 42.1272 38.4576 42.1525L38.7603 41.7223L38.836 41.292L38.5837 41.6716C38.2558 42.2537 38.0035 42.1272 37.6755 42.5827C37.5998 41.5957 38.5333 41.8741 38.3567 41.1402C38.1801 40.963 38.3567 40.634 38.281 40.3556C38.2053 40.0519 37.9026 39.7482 37.9783 39.571C37.9783 38.5587 37.5998 38.5587 37.8269 38.255Z" fill="#FEFEFE"/>
<path d="M41.5858 31.2952L41.5354 30.7384L41.4597 30.2828L41.7119 30.6625L41.7624 31.0927L41.939 31.3205L41.5858 31.2952Z" fill="#EC1C24"/>
<path d="M41.2074 35.6988C41.2326 36.2303 41.0056 37.2173 40.5515 37.3692C39.8199 37.6223 39.2144 38.7612 39.4415 39.8494C39.4415 39.1914 39.9712 38.2803 40.0722 38.0778C40.4001 37.5717 40.8794 37.8501 41.1065 37.6476C41.2326 37.4957 41.384 37.1161 41.384 36.863C41.384 36.8124 41.3335 36.7112 41.3335 36.7112C41.3083 36.6859 41.2326 35.6988 41.2074 35.6988Z" fill="#FEFEFE"/>
<path fill-rule="evenodd" clip-rule="evenodd" d="M37.5746 76.0152C38.1801 76.0152 38.6342 75.9645 38.9621 75.8633C39.4919 75.7114 39.7946 75.3824 39.8703 74.9269L39.9208 74.6738C39.9208 74.3532 39.7946 74.0917 39.5424 73.8892C39.3153 73.7121 39.0378 73.5855 38.6594 73.459L37.4989 73.0541L36.5151 72.7251C36.061 72.9022 35.7078 73.1553 35.4555 73.459C35.2032 73.7627 35.0771 74.0917 35.0771 74.446C35.0771 74.9016 35.2789 75.2559 35.7078 75.5849C36.1114 75.8717 36.7085 76.0152 37.4989 76.0152H37.5746ZM38.7099 71.0294C39.063 70.8269 39.3405 70.5992 39.5171 70.3461C39.719 70.093 39.8199 69.7893 39.8199 69.435C39.8199 68.9541 39.5928 68.5998 39.1892 68.3467C38.8528 68.1274 38.4155 68.0177 37.8773 68.0177C37.8017 67.9924 37.6755 67.9924 37.5494 67.9924H37.4989C36.9187 67.9924 36.4646 68.1189 36.1114 68.372C35.7834 68.6251 35.6069 68.9288 35.6069 69.2578C35.6069 69.5362 35.733 69.7893 35.9348 70.0171C36.1619 70.2448 36.4898 70.422 36.8935 70.5232L37.4989 70.7004L38.7099 71.0294ZM37.8017 66.8535C38.7351 66.8535 39.5424 66.9801 40.2487 67.3091C41.1569 67.714 41.611 68.2961 41.611 69.0806C41.611 69.6881 41.4092 70.1689 41.0813 70.5738C40.829 70.9029 40.4001 71.2066 39.8199 71.4849C40.5263 71.814 41.056 72.143 41.384 72.472C41.8129 72.9275 41.9895 73.5096 41.9895 74.1676C41.9895 75.2559 41.5354 76.0911 40.5767 76.6226C39.7946 77.0528 38.836 77.2806 37.6755 77.2806C37.6251 77.2806 37.5746 77.2806 37.5242 77.2806C36.616 77.2553 35.8339 77.1287 35.1528 76.8756C34.2446 76.5719 33.6391 76.0405 33.3868 75.3318C33.3111 75.0534 33.2355 74.8003 33.2355 74.5473C33.2355 74.0158 33.4625 73.5602 33.8661 73.1553C34.2193 72.801 34.6734 72.5226 35.3041 72.2695C35.0266 72.067 34.7996 71.8899 34.5977 71.738C34.4212 71.5609 34.2698 71.3837 34.1184 71.2066C33.8157 70.7763 33.6391 70.3208 33.6391 69.8146C33.6391 69.5109 33.7148 69.2072 33.8409 68.8529C34.1184 68.1442 34.6734 67.6128 35.5059 67.2584C36.0862 67.0054 36.7421 66.8788 37.5242 66.8535C37.5998 66.8535 37.726 66.8535 37.8017 66.8535ZM23.5985 76.1923C24.2292 75.9645 24.6833 75.4584 24.9356 74.6738C25.0701 74.2014 25.1374 73.4843 25.1374 72.5226C24.6833 72.8516 24.2292 73.1047 23.7751 73.2312C23.6237 73.3072 23.4471 73.3325 23.2958 73.3578C23.0183 73.4337 22.7408 73.459 22.4633 73.459C21.5046 73.459 20.7225 73.13 20.0666 72.4973C19.4359 71.8393 19.108 71.08 19.108 70.2195C19.108 69.8652 19.1584 69.4603 19.335 69.0806C19.4864 68.6757 19.6882 68.3467 19.9657 68.043C20.3441 67.6381 20.8235 67.3344 21.3785 67.1319C21.9587 66.9294 22.5389 66.8282 23.1696 66.8282C23.2201 66.8282 23.2453 66.8282 23.2958 66.8282C23.8255 66.8535 24.2796 66.9294 24.7337 67.056C25.2383 67.2331 25.6672 67.4609 26.0456 67.7646C26.6258 68.2202 27.0042 68.8276 27.2817 69.5868C27.5088 70.2701 27.6097 71.0294 27.6097 71.8899V72.396L27.5592 72.8516C27.3574 74.2689 26.8781 75.3824 26.0456 76.1417C25.3392 76.7744 24.431 77.154 23.2958 77.2553C23.0939 77.2806 22.8921 77.2806 22.6651 77.2806C21.9587 77.2806 21.3028 77.1034 20.7225 76.7491C20.0162 76.3695 19.6882 75.8633 19.6882 75.2559V75.1547L19.7387 74.8003C19.7387 74.6232 19.89 74.446 20.1423 74.2689C20.3946 74.0917 20.7225 73.9905 21.0505 73.9905C21.3785 73.9905 21.6812 74.0917 21.9082 74.2689C22.1605 74.4713 22.2867 74.7244 22.2867 75.104C22.211 75.5343 21.9587 75.8127 21.5551 75.9645C21.7569 76.0911 21.9587 76.167 22.1857 76.2429C22.2867 76.2682 22.4128 76.2935 22.4885 76.2935C22.5894 76.3189 22.6903 76.3442 22.7912 76.3442C22.9678 76.3442 23.1192 76.2935 23.2958 76.2682C23.3967 76.2429 23.4976 76.2429 23.5985 76.1923ZM24.4815 71.5609C24.8599 71.1559 25.0617 70.6498 25.0617 69.9917C25.0617 69.4097 24.8851 68.9288 24.5319 68.5745C24.2292 68.2455 23.8255 68.0936 23.2958 68.043C23.2453 68.043 23.1696 68.043 23.0939 68.043C22.5389 68.0936 22.1605 68.3214 21.883 68.7263C21.656 69.0553 21.5551 69.5109 21.5551 70.0424V70.3208V70.5485C21.6307 71.0547 21.8326 71.4343 22.1857 71.7127C22.4885 71.9405 22.8669 72.067 23.2453 72.067H23.2958C23.7751 72.067 24.1535 71.8899 24.4815 71.5609ZM12.2208 75.838H13.0533C13.4317 75.838 13.7093 75.7874 13.8858 75.6861C14.1129 75.5343 14.239 75.2812 14.239 74.9016V69.688H12.2208V68.5492C13.0281 68.4732 13.5831 68.3467 13.9111 68.1949C14.3399 67.9924 14.7184 67.5875 15.0715 67.0307H16.3329V74.9269C16.3329 75.3065 16.4338 75.5849 16.6357 75.7114C16.787 75.8127 17.0141 75.8633 17.3925 75.8633L17.8214 75.838C17.9223 75.838 17.998 75.838 18.0736 75.838C18.1577 75.838 18.2334 75.838 18.3007 75.838V77.0022H12.2208V75.838Z" fill="#EC1C24"/>
<path fill-rule="evenodd" clip-rule="evenodd" d="M37.9783 88.1632C38.6342 87.9354 39.063 87.4546 39.2901 86.6447C39.4415 86.1723 39.5171 85.4636 39.5171 84.5188C39.063 84.8562 38.6089 85.0924 38.1548 85.2274C37.9783 85.278 37.8521 85.3286 37.6755 85.354C37.398 85.4046 37.1205 85.4552 36.8178 85.4552C35.8844 85.4552 35.0771 85.1262 34.4464 84.4935C33.7905 83.8355 33.4625 83.0762 33.4625 82.2157C33.4625 81.8361 33.5634 81.4565 33.7148 81.0768C33.8493 80.6888 34.0596 80.3429 34.3455 80.0392C34.7491 79.6343 35.2032 79.3559 35.7834 79.1281C36.3385 78.9256 36.9187 78.8244 37.5494 78.8244C37.5998 78.8244 37.6251 78.8244 37.6755 78.8244C38.1801 78.8244 38.6846 78.9003 39.1387 79.0522C39.618 79.2293 40.0721 79.4571 40.4253 79.7608C40.9803 80.191 41.384 80.8237 41.6615 81.583C41.8885 82.2916 41.9894 83.0256 41.9894 83.8861V84.3922L41.939 84.8478C41.7624 86.2651 41.2326 87.3533 40.4253 88.1126C39.719 88.7453 38.8108 89.1249 37.6755 89.2261C37.4737 89.2514 37.2719 89.2514 37.0448 89.2514C36.3385 89.2514 35.6825 89.0743 35.1023 88.7453C34.4212 88.3403 34.068 87.8342 34.068 87.2268V87.1509L34.1184 86.7965C34.1436 86.6194 34.295 86.4422 34.5473 86.2397C34.7996 86.071 35.0855 85.9867 35.405 85.9867C35.7582 85.9867 36.0357 86.0879 36.3132 86.2651C36.5403 86.4675 36.6412 86.7459 36.6412 87.1002C36.5655 87.5305 36.3385 87.8089 35.9348 87.9354C36.1366 88.062 36.3637 88.1379 36.5655 88.2138C36.6664 88.2391 36.7673 88.2644 36.8682 88.2897C36.9691 88.2897 37.0701 88.315 37.1962 88.315C37.3644 88.315 37.5242 88.2982 37.6755 88.2644C37.7764 88.2138 37.8773 88.2138 37.9783 88.1632ZM38.8612 83.5571C39.2396 83.1774 39.4162 82.646 39.4162 82.0132C39.4162 81.4058 39.2396 80.925 38.9117 80.5707C38.6089 80.267 38.1801 80.0645 37.6755 80.0392C37.6082 80.0392 37.541 80.0392 37.4737 80.0392C36.9187 80.0898 36.515 80.3176 36.2628 80.7225C36.0357 81.0515 35.9348 81.5071 35.9348 82.0639V82.5447C36.0105 83.0509 36.2375 83.4305 36.5655 83.7089C36.8682 83.9367 37.2214 84.0632 37.6503 84.0632H37.6755C38.1296 84.0632 38.5333 83.8861 38.8612 83.5571ZM19.7387 86.6953C20.0666 86.0626 20.5964 85.4805 21.4037 84.9743L23.3714 84.0126C24.1787 83.6077 24.6833 83.1268 24.8851 82.5447C24.9608 82.2916 25.0112 82.0639 25.0112 81.8614C25.0112 81.2877 24.7926 80.8322 24.3553 80.4947C23.9012 80.1404 23.4219 79.9633 22.8164 79.9633C22.4128 79.9633 22.0091 80.0645 21.6307 80.2923C21.2523 80.4947 20.9244 80.7984 20.7225 81.2287C20.9244 81.1781 21.1262 81.1274 21.2775 81.1274C21.656 81.1274 21.9335 81.2287 22.1353 81.4311C22.3119 81.6589 22.4128 81.912 22.4128 82.2157C22.4128 82.5194 22.3371 82.7725 22.1605 83.0003C22.0091 83.2281 21.7569 83.3799 21.4541 83.4558C21.4037 83.4811 21.328 83.4811 21.2523 83.5064C21.1766 83.5064 21.101 83.5064 21.0253 83.5064C20.5712 83.5064 20.218 83.3546 19.9657 83.0509C19.6882 82.7219 19.5621 82.3169 19.5621 81.8361C19.5621 81.4818 19.663 81.1021 19.8143 80.7478C19.9657 80.3682 20.218 80.0392 20.5712 79.7355C20.9244 79.4318 21.328 79.204 21.8326 79.0522C22.3119 78.9003 22.8164 78.8244 23.3714 78.8244C24.431 78.8244 25.3897 79.1028 26.1717 79.6343C27.0295 80.2417 27.4331 81.0009 27.4331 81.9626C27.4331 82.0892 27.4331 82.2663 27.4079 82.4688C27.3826 82.6713 27.3574 82.8231 27.307 82.9497C27.0799 83.7848 26.4997 84.3669 25.5662 84.7212L22.9426 85.4299C21.9335 85.7842 21.1766 86.3916 20.7225 87.2268C20.9496 87.0749 21.1766 86.9737 21.4541 86.9231C21.5803 86.8978 21.7064 86.8725 21.8326 86.8471C21.9587 86.8471 22.0848 86.8471 22.2362 86.8471C22.766 86.9231 23.2705 86.999 23.6742 87.1002C23.8255 87.1002 24.3049 87.1762 25.1122 87.328H25.3897C25.869 87.328 26.2474 87.1255 26.4492 86.7712C26.5754 86.5181 26.6763 86.0626 26.7519 85.4299H27.6601C27.6601 86.6447 27.4583 87.5558 27.0547 88.2391C26.651 88.9224 26.0456 89.2514 25.2131 89.2514C24.7421 89.2514 24.1535 89.1165 23.4471 88.8465L22.3371 88.315C21.8326 88.062 21.4541 87.9607 21.1766 87.9607C20.9244 87.9607 20.7225 88.0366 20.5712 88.2138C20.4198 88.391 20.3189 88.6694 20.2684 89.0237H19.3098C19.3098 88.0366 19.4612 87.3027 19.7387 86.6953Z" fill="#EC1C24"/>
<path d="M28.972 73.9399H32.0498V72.1683H28.972V73.9399Z" fill="#EC1C24"/>
<path d="M28.972 86.0373H32.0498V84.2404H28.972V86.0373Z" fill="#EC1C24"/>
</svg>
